<svg width="34" height="32" viewBox="0 0 34 32" fill="none" xmlns="http://www.w3.org/2000/svg">
<path d="M12.9871 2.39881C14.9863 -0.290867 19.0137 -0.290866 21.0129 2.39881L23.5356 5.79275C24.1808 6.66078 25.09 7.2962 26.127 7.60369L29.9268 8.73047C33.3087 9.73333 34.6168 13.8285 32.4425 16.6062L30.2682 19.3837C29.5659 20.2809 29.1911 21.3911 29.2058 22.5304L29.2535 26.221C29.2977 29.64 25.9737 32.0937 22.7194 31.0443L18.5345 29.6948C17.5368 29.3731 16.4632 29.3731 15.4655 29.6948L11.2806 31.0443C8.02625 32.0937 4.70228 29.64 4.74649 26.221L4.79421 22.5304C4.80894 21.3911 4.4341 20.2809 3.73178 19.3837L1.5575 16.6062C-0.616843 13.8285 0.691253 9.73333 4.07317 8.73047L7.87303 7.60369C8.90996 7.2962 9.81923 6.66078 10.4644 5.79275L12.9871 2.39881Z" fill="#D9D9D9"/>
</svg>
